<svg width="40" height="40" viewBox="0 0 40 40" fill="none" xmlns="http://www.w3.org/2000/svg">
<path d="M38.5 20C39.3284 20 40.0059 20.6725 39.9438 21.4986C39.5866 26.2549 37.538 30.7462 34.1421 34.1421C30.3914 37.8929 25.3043 40 20 40C14.6957 40 9.60859 37.8929 5.85787 34.1421C2.46197 30.7462 0.413397 26.2549 0.0561835 21.4987C-0.00586012 20.6725 0.671573 20 1.5 20V20C2.32843 20 2.99312 20.673 3.0661 21.4982C3.41627 25.4577 5.14612 29.1878 7.97919 32.0208C11.1673 35.2089 15.4913 37 20 37C24.5087 37 28.8327 35.2089 32.0208 32.0208C34.8539 29.1878 36.5837 25.4577 36.9339 21.4982C37.0069 20.673 37.6716 20 38.5 20V20Z" fill="#4DC4FF"/>
</svg>
